<?xml version="1.0" encoding="utf-8"?>
<!-- Generator: Adobe Illustrator 26.0.3, SVG Export Plug-In . SVG Version: 6.00 Build 0)  -->
<svg version="1.1" id="Layer_1" xmlns="http://www.w3.org/2000/svg" xmlns:xlink="http://www.w3.org/1999/xlink" x="0px" y="0px"
	 viewBox="0 0 160 60" style="enable-background:new 0 0 160 60;" xml:space="preserve">
<style type="text/css">
	.st0{fill:#FFFFFF;}
</style>
<g>
	<circle cx="136.34" cy="30" r="18.31"/>
	<g>
		<path d="M5.35,16.32h4.49l2.96,8.09c0.36,1.07,0.68,2.24,1.05,3.36h0.11c0.36-1.12,0.67-2.29,1.04-3.36l2.86-8.09h4.49v18.21H18.6
			v-6.68c0-1.78,0.33-4.43,0.53-6.19h-0.11l-1.49,4.31l-2.57,6.98h-2.29l-2.58-6.98l-1.45-4.31H8.52c0.19,1.76,0.53,4.41,0.53,6.19
			v6.68H5.35V16.32z"/>
		<path d="M26.65,16.32h4.12v18.21h-4.12V16.32z"/>
		<path d="M38.46,16.32h4.93l5.72,18.21h-4.36l-2.38-9.22c-0.51-1.82-0.99-3.98-1.48-5.88h-0.11c-0.44,1.92-0.93,4.05-1.43,5.88
			l-2.39,9.22h-4.21L38.46,16.32z M36.51,27h8.76v3.2h-8.76V27z"/>
		<path d="M50.87,16.32h4.12v7.02h6.29v-7.02h4.12v18.21h-4.12v-7.6h-6.29v7.6h-4.12V16.32z"/>
		<path d="M69.01,27.85c0-4.49,2.87-7.07,6.13-7.07c1.83,0,3.02,0.81,3.93,1.65l-0.73,0.86c-0.87-0.8-1.87-1.42-3.17-1.42
			c-2.74,0-4.86,2.45-4.86,5.98c0,3.53,1.93,5.93,4.85,5.93c1.44,0,2.67-0.69,3.59-1.55l0.64,0.87c-1.15,1.03-2.58,1.77-4.29,1.77
			C71.63,34.87,69.01,32.29,69.01,27.85z"/>
		<path d="M82.69,32.74v-18.3h1.24V32.9c0,0.6,0.25,0.88,0.58,0.88c0.12,0,0.23,0,0.5-0.05l0.2,1.01c-0.25,0.07-0.48,0.14-0.89,0.14
			C83.25,34.87,82.69,34.21,82.69,32.74z"/>
		<path d="M89.11,29.72v-8.61h1.24v8.44c0,2.84,0.9,4.2,3.06,4.2c1.6,0,2.76-0.84,4.33-2.74v-9.9h1.23v13.42h-1.04l-0.13-2.25h-0.06
			c-1.32,1.54-2.71,2.58-4.56,2.58C90.39,34.87,89.11,33.19,89.11,29.72z"/>
		<path d="M105.34,33.18h-0.06l-0.14,1.36h-1.03v-20.1h1.24v5.83l-0.06,2.62c1.36-1.15,2.99-2.1,4.62-2.1c3.6,0,5.37,2.69,5.37,6.84
			c0,4.56-2.75,7.24-5.91,7.24C108.08,34.87,106.6,34.21,105.34,33.18z M113.98,27.63c0-3.3-1.17-5.76-4.27-5.76
			c-1.33,0-2.79,0.78-4.36,2.21v7.96c1.47,1.26,2.94,1.73,3.95,1.73C112.02,33.78,113.98,31.27,113.98,27.63z"/>
	</g>
	<g>
		<g>
			<path d="M68.94,36.68h0.68v9.12h4.47v0.58h-5.14V36.68z"/>
			<path d="M78.76,36.68h5.31v0.58h-4.63v3.67h3.89v0.58h-3.89v4.28h4.78v0.58h-5.45V36.68z"/>
			<path d="M87.92,36.68h0.72l1.8,5.67c0.37,1.19,0.63,2.08,1.02,3.26h0.06c0.4-1.18,0.66-2.07,1.02-3.26l1.79-5.67h0.68l-3.17,9.7
				h-0.73L87.92,36.68z"/>
			<path d="M99.45,36.68h5.31v0.58h-4.63v3.67h3.89v0.58h-3.89v4.28h4.78v0.58h-5.45V36.68z"/>
			<path d="M109.98,36.68h0.68v9.12h4.47v0.58h-5.14V36.68z"/>
		</g>
	</g>
	<g>
		<g>
			<path class="st0" d="M126.08,39.04l0.93-0.84c1.4,2.13,3.86,3.34,6.59,3.34c3.83,0,7.65-3.81,7.65-7.46
				c0-2.6-2.03-4.62-4.89-4.62c-1.76,0-3.86,0.78-5.72,2.03l-1.1-0.64l2.66-11.68h12.55l-0.23,1.22h-11.38l-2.26,9.65
				c1.56-1.15,3.76-1.79,5.79-1.79c3.39,0,5.79,2.43,5.79,5.63c0,4.46-4.49,8.87-8.92,8.87C130.37,42.75,127.61,41.37,126.08,39.04z
				"/>
		</g>
	</g>
</g>
</svg>
