<?xml version="1.0" encoding="utf-8"?>
<!-- Generator: Adobe Illustrator 26.0.3, SVG Export Plug-In . SVG Version: 6.00 Build 0)  -->
<svg version="1.1" id="Layer_1" xmlns="http://www.w3.org/2000/svg" xmlns:xlink="http://www.w3.org/1999/xlink" x="0px" y="0px"
	 viewBox="0 0 160 80" style="enable-background:new 0 0 160 80;" xml:space="preserve">
<style type="text/css">
	.st0{fill:#FFFFFF;}
</style>
<g>
	<g>
		<path d="M3.77,25.92h4.49l2.96,8.09c0.36,1.07,0.68,2.24,1.05,3.36h0.11c0.36-1.12,0.67-2.29,1.04-3.36l2.86-8.09h4.49v18.21
			h-3.75v-6.68c0-1.78,0.33-4.43,0.53-6.19h-0.11l-1.49,4.31l-2.57,6.98h-2.29l-2.58-6.98l-1.45-4.31H6.94
			c0.19,1.76,0.53,4.41,0.53,6.19v6.68H3.77V25.92z"/>
		<path d="M25.08,25.92h4.12v18.21h-4.12V25.92z"/>
		<path d="M36.88,25.92h4.93l5.72,18.21h-4.36l-2.38-9.22c-0.51-1.82-0.99-3.98-1.48-5.88H39.2c-0.44,1.92-0.93,4.05-1.43,5.88
			l-2.39,9.22h-4.21L36.88,25.92z M34.94,36.59h8.76v3.2h-8.76V36.59z"/>
		<path d="M49.29,25.92h4.12v7.02h6.29v-7.02h4.12v18.21H59.7v-7.6h-6.29v7.6h-4.12V25.92z"/>
		<path d="M67.44,37.44c0-4.49,2.87-7.07,6.13-7.07c1.83,0,3.02,0.81,3.93,1.65l-0.73,0.86c-0.87-0.8-1.87-1.42-3.17-1.42
			c-2.74,0-4.86,2.45-4.86,5.98c0,3.53,1.93,5.93,4.85,5.93c1.44,0,2.67-0.69,3.59-1.55l0.64,0.87c-1.15,1.03-2.58,1.77-4.29,1.77
			C70.06,44.46,67.44,41.88,67.44,37.44z"/>
		<path d="M81.12,42.33v-18.3h1.24V42.5c0,0.6,0.25,0.88,0.58,0.88c0.12,0,0.23,0,0.5-0.05l0.2,1.01c-0.25,0.07-0.48,0.14-0.89,0.14
			C81.68,44.46,81.12,43.8,81.12,42.33z"/>
		<path d="M87.53,39.32v-8.61h1.24v8.44c0,2.84,0.9,4.2,3.06,4.2c1.6,0,2.76-0.84,4.33-2.74v-9.9h1.23v13.42h-1.04l-0.13-2.25h-0.06
			c-1.32,1.54-2.71,2.58-4.56,2.58C88.82,44.46,87.53,42.78,87.53,39.32z"/>
		<path d="M103.76,42.77h-0.06l-0.14,1.36h-1.03v-20.1h1.24v5.83l-0.06,2.62c1.36-1.15,2.99-2.1,4.62-2.1c3.6,0,5.37,2.69,5.37,6.84
			c0,4.56-2.75,7.24-5.91,7.24C106.51,44.46,105.03,43.8,103.76,42.77z M112.4,37.23c0-3.3-1.17-5.76-4.27-5.76
			c-1.33,0-2.79,0.78-4.36,2.21v7.96c1.47,1.26,2.94,1.73,3.95,1.73C110.45,43.37,112.4,40.87,112.4,37.23z"/>
	</g>
	<g>
		<g>
			<path d="M67.36,46.27h0.68v9.12h4.47v0.58h-5.14V46.27z"/>
			<path d="M77.18,46.27h5.31v0.58h-4.63v3.67h3.89v0.58h-3.89v4.28h4.78v0.58h-5.45V46.27z"/>
			<path d="M86.35,46.27h0.72l1.8,5.67c0.37,1.19,0.63,2.08,1.02,3.26h0.06c0.4-1.18,0.66-2.07,1.02-3.26l1.79-5.67h0.68l-3.17,9.7
				h-0.73L86.35,46.27z"/>
			<path d="M97.87,46.27h5.31v0.58h-4.63v3.67h3.89v0.58h-3.89v4.28h4.78v0.58h-5.45V46.27z"/>
			<path d="M108.4,46.27h0.68v9.12h4.47v0.58h-5.14V46.27z"/>
		</g>
	</g>
	<path d="M146.08,55.95h-29.63l8.92-27.96c0.73-2.29,2.86-3.84,5.26-3.84h25.6L146.08,55.95z"/>
	<g>
		<g>
			<path class="st0" d="M138.11,45.72h-11.55l0.03-1.25l14.51-15.69h1.66l-3.23,15.72h3.79l-0.23,1.22h-3.79l-1.3,6.24h-1.2
				L138.11,45.72z M138.34,44.5l2.96-14.27L128.13,44.5H138.34z"/>
		</g>
	</g>
</g>
</svg>
