<?xml version="1.0" encoding="utf-8"?>
<!-- Generator: Adobe Illustrator 24.0.1, SVG Export Plug-In . SVG Version: 6.00 Build 0)  -->
<svg version="1.1" id="Layer_1" xmlns="http://www.w3.org/2000/svg" xmlns:xlink="http://www.w3.org/1999/xlink" x="0px" y="0px"
	 viewBox="0 0 310.1 50" style="enable-background:new 0 0 310.1 50;" xml:space="preserve">
<style type="text/css">
	.st0{fill:#F5D80C;}
	.st1{fill:#FFFFFF;}
</style>
<g>
	<path d="M298.1-0.1H0v17.2v9.1h224.1l10-9.1l5.7-5.1v5.1h2.5h55.9c4.3,0,7.8-3.1,8.5-7.2c0.1-0.5,0.1-0.9,0.1-1.4
		C306.7,3.7,302.9-0.1,298.1-0.1z"/>
	<path class="st0" d="M306.6,9.9c-0.7,4.1-4.2,7.2-8.5,7.2h-55.9h-2.5v-5.1l-5.7,5.1l-10,9.1l-5.5,4.9l21.2,18.6v-4.2h58.4
		c4.7,0,8.6-3.9,8.6-8.6V9.8L306.6,9.9z"/>
</g>
<g>
	<path class="st1" d="M44.2,13.2c0-5,4.1-9.2,9-9.2c2.6,0,5,1.2,6.7,3.1l-3.4,3.2c-0.8-1.1-2-1.8-3.3-1.8c-2.3,0-4.2,2.1-4.2,4.6
		c0,2.5,1.9,4.7,4.2,4.7c1.3,0,2.5-0.7,3.3-1.8l3.4,3.2c-1.7,1.9-4,3.2-6.7,3.2C48.3,22.4,44.2,18.2,44.2,13.2z"/>
	<path class="st1" d="M72.1,19.7h-5.7l-0.8,2.4h-5.2l6.3-17.8h5.2l6.3,17.8H73L72.1,19.7z M70.8,16l-1.5-4.3L67.7,16H70.8z"/>
	<path class="st1" d="M78.4,19.4l2.6-3.3c1.7,1.4,3.5,2.2,5.4,2.2c1.3,0,1.9-0.5,1.9-1.2c0-0.9-0.6-1-2.9-1.6
		c-3.6-0.9-6.3-1.9-6.3-5.6c0-3.5,2.6-5.9,6.5-5.9c2.9,0,5.1,0.8,6.9,2.4L90.3,10c-1.5-1.2-3.2-1.8-4.7-1.8c-1.1,0-1.7,0.5-1.7,1.2
		c0,0.9,0.6,1.2,2.9,1.7c3.8,0.9,6.2,2,6.2,5.4c0,3.8-2.7,6-6.8,6C83.3,22.4,80.5,21.4,78.4,19.4z"/>
	<path class="st1" d="M110.5,4.3v17.8h-4.6v-6.8h-6v6.8h-4.6V4.3h4.6v6.5h6V4.3H110.5z"/>
	<path class="st0" d="M119.8,4.3h8.9c3.1,0,5.3,1.9,5.3,4.5c0,1.7-0.8,3.2-2.3,4c1.9,0.9,3,2.6,3,4.5c0,2.8-2.4,4.8-5.7,4.8h-9.2
		V4.3z M127.6,11.2c1,0,1.7-0.6,1.7-1.3c0-0.8-0.7-1.3-1.7-1.3h-3.1v2.7H127.6z M128.3,17.9c1,0,1.7-0.6,1.7-1.4
		c0-0.8-0.7-1.4-1.7-1.4h-3.8v2.8H128.3z"/>
	<path class="st0" d="M147.3,19.7h-5.7l-0.8,2.4h-5.2l6.3-17.8h5.2l6.3,17.8h-5.2L147.3,19.7z M145.9,16l-1.5-4.3l-1.6,4.3H145.9z"
		/>
	<path class="st0" d="M154.2,13.2c0-5,4.1-9.2,9-9.2c2.6,0,5,1.2,6.7,3.1l-3.4,3.2c-0.8-1.1-2-1.8-3.3-1.8c-2.3,0-4.2,2.1-4.2,4.6
		c0,2.5,1.9,4.7,4.2,4.7c1.3,0,2.5-0.7,3.3-1.8l3.4,3.2c-1.7,1.9-4,3.2-6.7,3.2C158.3,22.4,154.2,18.2,154.2,13.2z"/>
	<path class="st0" d="M171.7,4.3h4.6v7l5.5-7h5.5l-6.1,7.4l6.6,10.4h-5.6l-4.2-6.7l-1.7,2v4.7h-4.6V4.3z"/>
</g>
</svg>
