<?xml version="1.0" encoding="utf-8"?>
<!-- Generator: Adobe Illustrator 16.0.0, SVG Export Plug-In . SVG Version: 6.00 Build 0)  -->
<!DOCTYPE svg PUBLIC "-//W3C//DTD SVG 1.1//EN" "http://www.w3.org/Graphics/SVG/1.1/DTD/svg11.dtd">
<svg version="1.1" id="Layer_1" xmlns="http://www.w3.org/2000/svg" xmlns:xlink="http://www.w3.org/1999/xlink" x="0px" y="0px"
	 width="40.5px" height="50.25px" viewBox="0 0 40.5 50.25" enable-background="new 0 0 40.5 50.25" xml:space="preserve">
<g>
	<defs>
		<rect id="SVGID_1_" x="-15.5" y="-10.5" width="72" height="72"/>
	</defs>
	<clipPath id="SVGID_2_">
		<use xlink:href="#SVGID_1_"  overflow="visible"/>
	</clipPath>
	<path clip-path="url(#SVGID_2_)" fill="none" stroke="#00A651" stroke-width="2" stroke-miterlimit="10" d="M16.632,21.163
		l-3.278-3.208c0,0,1.823-1.842,4.329-0.229c0,0,2.549-1.695,2.613-1.706c0.064,0.011,2.613,1.706,2.613,1.706
		c2.506-1.613,4.327,0.229,4.327,0.229l-3.091,3.075"/>
	<path clip-path="url(#SVGID_2_)" fill="none" stroke="#00A651" stroke-miterlimit="10" d="M24.063,23.17h-7.449
		c-0.467,0-0.845-0.379-0.845-0.845v-0.45c0-0.467,0.378-0.845,0.845-0.845h7.449c0.467,0,0.845,0.378,0.845,0.845v0.45
		C24.908,22.791,24.53,23.17,24.063,23.17z"/>
	<path clip-path="url(#SVGID_2_)" fill="none" stroke="#00A651" stroke-width="2" stroke-miterlimit="10" d="M24.376,23.034
		c0,0,9.928,8.385,9.338,16.602c-0.549,6.825-4.846,9.101-6.067,9.48h-6.911h-0.778h-6.91c-1.222-0.38-5.52-2.655-6.068-9.48
		c-0.589-8.217,9.338-16.602,9.338-16.602"/>
	
		<line clip-path="url(#SVGID_2_)" fill="none" stroke="#00A651" stroke-width="2" stroke-linecap="round" stroke-linejoin="round" stroke-miterlimit="10" x1="2.594" y1="22.1" x2="6.032" y2="22.1"/>
	
		<line clip-path="url(#SVGID_2_)" fill="none" stroke="#00A651" stroke-width="2" stroke-linecap="round" stroke-linejoin="round" stroke-miterlimit="10" x1="34.968" y1="22.1" x2="38.406" y2="22.1"/>
	
		<line clip-path="url(#SVGID_2_)" fill="none" stroke="#00A651" stroke-width="2" stroke-linecap="round" stroke-linejoin="round" stroke-miterlimit="10" x1="2.94" y1="11.912" x2="7.699" y2="14.791"/>
	
		<line clip-path="url(#SVGID_2_)" fill="none" stroke="#00A651" stroke-width="2" stroke-linecap="round" stroke-linejoin="round" stroke-miterlimit="10" x1="11.529" y1="6.643" x2="13.154" y2="9.498"/>
	
		<line clip-path="url(#SVGID_2_)" fill="none" stroke="#00A651" stroke-width="2" stroke-linecap="round" stroke-linejoin="round" stroke-miterlimit="10" x1="20.441" y1="1.884" x2="20.441" y2="7.548"/>
	
		<line clip-path="url(#SVGID_2_)" fill="none" stroke="#00A651" stroke-width="2" stroke-linecap="round" stroke-linejoin="round" stroke-miterlimit="10" x1="29.334" y1="6.643" x2="27.686" y2="9.498"/>
	
		<line clip-path="url(#SVGID_2_)" fill="none" stroke="#00A651" stroke-width="2" stroke-linecap="round" stroke-linejoin="round" stroke-miterlimit="10" x1="32.978" y1="14.837" x2="37.853" y2="11.936"/>
	
		<path clip-path="url(#SVGID_2_)" fill="none" stroke="#00A651" stroke-width="1.5" stroke-linecap="round" stroke-linejoin="round" stroke-miterlimit="10" d="
		M21.308,38.335c-0.002-0.029-0.003-0.059-0.003-0.087c0-0.704,0.57-1.274,1.274-1.274c0.659,0,1.205,0.501,1.27,1.143l0.004,0.035
		c0,1.23-0.997,2.228-2.228,2.228c-1.23,0-2.227-0.997-2.227-2.228v-5.801v-0.018c-0.236-0.34-0.629-0.561-1.074-0.561
		c-0.721,0-1.306,0.584-1.306,1.305"/>
	
		<line clip-path="url(#SVGID_2_)" fill="none" stroke="#00A651" stroke-linecap="round" stroke-linejoin="round" stroke-miterlimit="10" x1="17.561" y1="34.482" x2="23.981" y2="34.482"/>
</g>
</svg>
