<?xml version="1.0" encoding="utf-8"?>
<!-- Generator: Adobe Illustrator 26.0.3, SVG Export Plug-In . SVG Version: 6.00 Build 0)  -->
<svg version="1.1" id="Layer_1" xmlns="http://www.w3.org/2000/svg" xmlns:xlink="http://www.w3.org/1999/xlink" x="0px" y="0px"
	 viewBox="0 0 17 17" style="enable-background:new 0 0 17 17;" xml:space="preserve">
<g>
	<g>
		<g>
			<path d="M8.49,16.77c-4.55,0-8.26-3.71-8.26-8.26c0-1.19,0.25-2.35,0.76-3.44l0.45,0.21C0.97,6.31,0.73,7.4,0.73,8.51
				c0,4.28,3.48,7.76,7.76,7.76c4.28,0,7.76-3.48,7.76-7.76s-3.48-7.76-7.76-7.76c-1.37,0-2.72,0.37-3.91,1.07L4.33,1.39
				c1.27-0.74,2.71-1.14,4.17-1.14c4.55,0,8.26,3.7,8.26,8.26C16.75,13.07,13.05,16.77,8.49,16.77z"/>
		</g>
	</g>
	<g>
		<g>
			<path d="M8.49,16.77c-4.55,0-8.26-3.71-8.26-8.26c0-1.19,0.25-2.35,0.76-3.44l0.45,0.21C0.97,6.31,0.73,7.4,0.73,8.51
				c0,4.28,3.48,7.76,7.76,7.76c4.28,0,7.76-3.48,7.76-7.76s-3.48-7.76-7.76-7.76c-1.37,0-2.72,0.37-3.91,1.07L4.33,1.39
				c1.27-0.74,2.71-1.14,4.17-1.14c4.55,0,8.26,3.7,8.26,8.26C16.75,13.07,13.05,16.77,8.49,16.77z"/>
		</g>
	</g>
	<g>
		<g>
			<path d="M8.49,14.35c-3.22,0-5.84-2.62-5.84-5.84c0-3.22,2.62-5.84,5.84-5.84s5.84,2.62,5.84,5.84c0,0.84-0.18,1.66-0.54,2.43
				l-0.46-0.21c0.33-0.71,0.49-1.46,0.49-2.23c0-2.95-2.4-5.34-5.34-5.34s-5.34,2.4-5.34,5.34c0,2.94,2.4,5.34,5.34,5.34
				c0.94,0,1.88-0.25,2.69-0.74l0.25,0.43C10.54,14.08,9.52,14.35,8.49,14.35z"/>
		</g>
	</g>
</g>
<g>
	<path d="M12.34,9.99c-0.3,0.39-1.28,1.62-2.14,0.59c-0.21-0.3-0.09-1.11-0.02-1.42c0.07-0.31,0.4-2.02,0.43-2.22
		c0.03-0.2,0.05-0.41-0.14-0.45c-0.19-0.04-0.74,0.53-1.92,2.98c0,0,0.01,0.27-0.05,0.52c-0.05,0.25-0.41,0.33-0.63,0.23
		C7.67,10.1,7.55,9.84,7.6,9.46c0.05-0.37,0.25-1.34,0.31-1.9c0.06-0.55-0.25-0.48-0.36-0.31c-0.11,0.17-1.7,2.64-1.8,2.85
		c-0.02,0.07-0.06,0.1-0.07,0.2c-0.01,0.11-0.05,0.33-0.22,0.37C5.29,10.72,5,10.6,4.87,10.29c-0.13-0.3,0.03-2.02,0.19-2.53
		c0,0-0.65,0.93-1.7,1.03C4.11,8.48,4.95,7.48,5.63,6.2C5.71,6.1,6.54,6.1,6.42,6.86C6.26,7.56,5.76,9.57,5.76,9.75
		c0.17-0.35,1.05-2.14,1.9-2.77c0.28-0.22,1.02-0.28,1,0.63c0.01,0.54-0.05,1.24-0.05,1.24s0.57-1.49,1.3-2.25
		c0.73-0.76,1.87-0.51,1.88,0.63c0.01,1.14-0.48,2.33-0.51,2.44c-0.03,0.11-0.21,0.61,0.24,0.44c0.45-0.17,2.04-2.61,2.04-2.61
		S12.8,9.47,12.34,9.99z"/>
</g>
</svg>
