<?xml version="1.0" encoding="utf-8"?>
<!-- Generator: Adobe Illustrator 16.0.0, SVG Export Plug-In . SVG Version: 6.00 Build 0)  -->
<!DOCTYPE svg PUBLIC "-//W3C//DTD SVG 1.1//EN" "http://www.w3.org/Graphics/SVG/1.1/DTD/svg11.dtd">
<svg version="1.1" id="Layer_1" xmlns="http://www.w3.org/2000/svg" xmlns:xlink="http://www.w3.org/1999/xlink" x="0px" y="0px"
	 width="42.875px" height="44px" viewBox="0 0 42.875 44" enable-background="new 0 0 42.875 44" xml:space="preserve">
<g>
	<defs>
		<rect id="SVGID_1_" x="-14.25" y="-14.125" width="72" height="72"/>
	</defs>
	<clipPath id="SVGID_2_">
		<use xlink:href="#SVGID_1_"  overflow="visible"/>
	</clipPath>
	
		<path clip-path="url(#SVGID_2_)" fill="none" stroke="#00AEEF" stroke-width="1.2" stroke-linecap="round" stroke-linejoin="round" stroke-miterlimit="10" d="
		M5.472,40.354H2.787c-0.71,0-1.285-0.576-1.285-1.286v-9.65c0-0.711,0.575-1.286,1.285-1.286h2.685c0.71,0,1.285,0.575,1.285,1.286
		v9.65C6.757,39.778,6.182,40.354,5.472,40.354z"/>
	
		<path clip-path="url(#SVGID_2_)" fill="none" stroke="#00AEEF" stroke-width="1.2" stroke-linecap="round" stroke-linejoin="round" stroke-miterlimit="10" d="
		M6.757,29.974c0,0,4.786-1.972,6.695-1.842c1.91,0.129,4.409,1,6.29,2.601c1.405,0.927,2.64,1.46,3.679,1.769
		c1.039,0.31,5.11,2.64,5.11,4.577s-3.146,1.292-3.65,1.067c-0.506-0.226-6.868-2.876-10.08-2.893"/>
	
		<path clip-path="url(#SVGID_2_)" fill="none" stroke="#00AEEF" stroke-width="1.2" stroke-linecap="round" stroke-linejoin="round" stroke-miterlimit="10" d="
		M6.757,38.431c0,0,4.531,0.34,6.032,1.619c1.5,1.278,7.002,3.001,8.336,3.001s8.004-1.72,19.342-8.807
		c1.724-1.334,2.032-3.531,0.722-3.531c-1.444,0-5.298,0.647-11.448,4.502"/>
	
		<path clip-path="url(#SVGID_2_)" fill="none" stroke="#00AEEF" stroke-width="1.2" stroke-linecap="round" stroke-linejoin="round" stroke-miterlimit="10" d="
		M27.489,33.278c0,0,8.726-6.707,10.143-3.177"/>
	
		<path clip-path="url(#SVGID_2_)" fill="none" stroke="#00AEEF" stroke-width="1.2" stroke-linecap="round" stroke-linejoin="round" stroke-miterlimit="10" d="
		M25.683,32.186c0,0,6.363-5.726,7.364-3.558"/>
	
		<path clip-path="url(#SVGID_2_)" fill="none" stroke="#00AEEF" stroke-width="1.2" stroke-linecap="round" stroke-linejoin="round" stroke-miterlimit="10" d="
		M23.71,31.046c0,0,4.474-4.502,5.002-2.557"/>
	
		<path clip-path="url(#SVGID_2_)" fill="none" stroke="#00AEEF" stroke-width="1.2" stroke-linecap="round" stroke-linejoin="round" stroke-miterlimit="10" d="
		M22.474,6.178l1.803,5.549c0.102,0.31,0.391,0.52,0.716,0.52h5.835c0.729,0,1.032,0.933,0.442,1.362l-4.721,3.429
		c-0.264,0.192-0.374,0.532-0.272,0.842l1.802,5.548c0.226,0.694-0.567,1.271-1.157,0.842L22.2,20.841
		c-0.264-0.192-0.622-0.192-0.885,0l-4.72,3.429c-0.59,0.429-1.384-0.147-1.158-0.842l1.803-5.548c0.1-0.31-0.01-0.65-0.274-0.842
		l-4.721-3.429c-0.589-0.429-0.286-1.362,0.443-1.362h5.835c0.326,0,0.615-0.21,0.716-0.52l1.802-5.549
		C21.268,5.485,22.248,5.485,22.474,6.178z"/>
	
		<line clip-path="url(#SVGID_2_)" fill="none" stroke="#00AEEF" stroke-width="1.2" stroke-linecap="round" stroke-linejoin="round" stroke-miterlimit="10" x1="9.627" y1="16.198" x2="10.403" y2="16.198"/>
	
		<line clip-path="url(#SVGID_2_)" fill="none" stroke="#00AEEF" stroke-width="1.2" stroke-linecap="round" stroke-linejoin="round" stroke-miterlimit="10" x1="12.412" y1="5.658" x2="13.802" y2="7.007"/>
	
		<line clip-path="url(#SVGID_2_)" fill="none" stroke="#00AEEF" stroke-width="1.2" stroke-linecap="round" stroke-linejoin="round" stroke-miterlimit="10" x1="30.887" y1="23.743" x2="32.276" y2="25.092"/>
	
		<line clip-path="url(#SVGID_2_)" fill="none" stroke="#00AEEF" stroke-width="1.2" stroke-linecap="round" stroke-linejoin="round" stroke-miterlimit="10" x1="11.737" y1="24.611" x2="13.086" y2="23.223"/>
	
		<line clip-path="url(#SVGID_2_)" fill="none" stroke="#00AEEF" stroke-width="1.2" stroke-linecap="round" stroke-linejoin="round" stroke-miterlimit="10" x1="30.712" y1="6.832" x2="32.061" y2="5.442"/>
	
		<line clip-path="url(#SVGID_2_)" fill="none" stroke="#00AEEF" stroke-width="1.2" stroke-linecap="round" stroke-linejoin="round" stroke-miterlimit="10" x1="21.758" y1="2.008" x2="21.758" y2="1.232"/>
	
		<line clip-path="url(#SVGID_2_)" fill="none" stroke="#00AEEF" stroke-width="1.2" stroke-linecap="round" stroke-linejoin="round" stroke-miterlimit="10" x1="21.758" y1="26.841" x2="21.758" y2="26.064"/>
	
		<line clip-path="url(#SVGID_2_)" fill="none" stroke="#00AEEF" stroke-width="1.2" stroke-linecap="round" stroke-linejoin="round" stroke-miterlimit="10" x1="33.439" y1="16.198" x2="34.215" y2="16.198"/>
</g>
</svg>
